<?xml version="1.0" encoding="UTF-8" standalone="no"?>
<!-- Created with Inkscape (http://www.inkscape.org/) -->

<svg
   width="88.578705mm"
   height="110.10356mm"
   viewBox="0 0 88.578705 110.10356"
   version="1.1"
   id="svg1"
   xml:space="preserve"
   xmlns="http://www.w3.org/2000/svg"
   xmlns:svg="http://www.w3.org/2000/svg"><defs
     id="defs1" /><g
     id="layer1"
     transform="translate(-66.936231,-22.502286)"><path
       id="path27"
       style="fill:#065a89;fill-opacity:1;stroke:#134067;stroke-width:0.3;stroke-linejoin:round;stroke-dasharray:none;stroke-opacity:1"
       d="m 106.75271,63.656453 c 0.0703,-0.998323 0.18997,-2.948127 0.26597,-4.332897 l 0.1382,-2.517765 h -7.10698 c -8.736095,0 -8.148048,0.220103 -8.148048,-3.049779 0,-2.054591 0.05193,-2.348377 0.453024,-2.563037 0.283938,-0.151959 3.124981,-0.242451 7.611848,-0.242451 h 7.158826 l 10e-4,-0.87829 c 7.7e-4,-0.48306 0.0672,-1.72273 0.14752,-2.754823 l 0.14612,-1.876532 -1.34617,-0.557958 c -1.66236,-0.689009 -3.91612,-2.751359 -5.03235,-4.604943 -3.501697,-5.814861 -1.183042,-13.47192 4.96045,-16.381251 10.3597,-4.905966 20.76331,5.573332 15.69523,15.809402 -0.91978,1.857684 -3.13152,3.980578 -5.15279,4.945788 l -1.6641,0.794656 -0.0132,1.665338 c -0.007,0.915936 0.0538,2.154325 0.13576,2.751976 l 0.14894,1.086637 7.28725,0.0036 c 4.17206,0.0021 7.43743,0.09833 7.63856,0.225223 0.25542,0.161136 0.3835,0.815475 0.4692,2.397073 0.18595,3.431844 0.70052,3.229385 -8.20776,3.229385 h -7.29144 l 0.16877,3.630266 0.16877,3.630265 -0.67549,9.62e-4 c -0.37151,5.28e-4 -2.2037,0.31628 -4.07153,0.70167 -1.86783,0.38539 -3.53504,0.701142 -3.70492,0.701671 -0.24014,7.47e-4 -0.28043,-0.402894 -0.18108,-1.814172 z m 7.04784,-23.705618 c 4.13122,-1.78199 4.71489,-7.970312 0.98779,-10.473021 -4.24418,-2.849931 -9.515,-0.134801 -9.53133,4.909826 -0.006,1.819793 0.32654,2.774095 1.38719,3.982113 1.86722,2.126636 4.52849,2.714603 7.15635,1.581082 z" /><path
       style="fill:#065a89;fill-opacity:1;stroke:#134067;stroke-width:0.3;stroke-linejoin:round;stroke-dasharray:none;stroke-opacity:1"
       d="m 115.52884,94.867365 c -0.98168,-0.186585 -4.19622,-1.122631 -7.14343,-2.080102 -2.9472,-0.957471 -5.99092,-1.875857 -6.76381,-2.040858 -2.109615,-0.45037 -6.331341,-0.355459 -10.305274,0.231677 -3.873309,0.57227 -5.376442,0.51824 -7.193492,-0.258567 -1.162063,-0.496794 -2.918319,-2.186398 -3.557552,-3.42254 -0.466875,-0.902836 -0.372054,-0.978781 3.178695,-2.545901 7.103889,-3.135296 17.583943,-6.249947 27.396593,-8.142213 6.62015,-1.276628 10.25777,-1.753914 20.22515,-2.653708 l 1.87306,-0.169087 0.51368,-1.405265 c 0.28252,-0.772895 0.51995,-1.596086 0.5276,-1.829314 0.0156,-0.475604 0.44234,-0.487898 -7.1295,0.205409 -18.58006,1.701262 -35.098819,6.610394 -45.403361,13.493208 l -1.672986,1.117454 -0.07026,-1.149766 c -0.144363,-2.362374 1.768116,-4.800326 5.925528,-7.553626 7.409536,-4.907063 17.510969,-8.278503 30.330279,-10.12299 3.84008,-0.552523 5.74036,-0.727805 18.03423,-1.663484 2.64072,-0.200984 5.89992,-0.465763 7.24265,-0.588397 3.03482,-0.277177 2.82841,-0.285028 2.82841,0.10757 0,0.794251 -4.71843,11.131181 -6.85163,15.010257 -3.31046,6.019839 -8.08851,11.906034 -11.2997,13.920382 -2.57203,1.613408 -6.96615,2.246671 -10.68488,1.539861 z"
       id="path26" /><path
       style="fill:#065a89;fill-opacity:1;stroke:#134067;stroke-width:0.3;stroke-linejoin:round;stroke-dasharray:none;stroke-opacity:1"
       d="m 109.4958,131.15569 c -3.7094,-3.23508 -7.34732,-5.55682 -13.248819,-8.45546 -5.928541,-2.91192 -7.535476,-3.76807 -9.731974,-5.18503 -5.72798,-3.69512 -10.014186,-7.88455 -13.308027,-13.00753 -1.110317,-1.7269 -1.368228,-2.00232 -1.564061,-1.67026 -1.071518,1.81692 -1.490897,1.65735 -2.424372,-0.92243 -1.888983,-5.220458 -2.519058,-10.132036 -1.905731,-14.855588 0.334845,-2.578815 0.645984,-3.553583 1.134278,-3.553583 0.229172,0 2.780934,2.290404 5.670582,5.089786 2.889647,2.799383 5.971542,5.7783 6.848653,6.619817 1.247091,1.196482 1.557869,1.626139 1.425577,1.970887 -0.158103,0.41201 -0.382461,0.431734 -3.428927,0.301441 l -3.259755,-0.139414 0.402069,0.632036 c 3.363863,5.287858 8.119107,9.819808 12.873271,12.268798 3.17382,1.63491 5.15106,2.17491 7.958818,2.17362 2.744081,-0.001 3.882748,-0.40543 5.598858,-1.98728 2.12993,-1.96331 2.87896,-4.44072 3.18516,-10.534943 0.11973,-2.383094 0.22116,-4.356638 0.2254,-4.385654 0.004,-0.02902 0.24483,0.0372 0.53467,0.147147 1.41652,0.537343 6.61818,1.92058 8.26787,2.19861 l 1.86174,0.313767 0.14567,2.912413 c 0.38369,7.67101 2.88336,11.16491 8.16859,11.4176 5.18449,0.24787 11.04378,-2.72678 16.43516,-8.34382 1.96374,-2.04594 5.11244,-6.124787 5.11244,-6.622689 0,-0.09595 -1.40577,-0.115518 -3.12393,-0.04348 -2.88487,0.120956 -3.13659,0.09802 -3.28923,-0.299762 -0.1865,-0.486006 -0.50647,-0.154733 8.11322,-8.399773 3.67842,-3.518549 5.70276,-5.296215 5.97237,-5.244613 0.93566,0.179087 1.56608,6.872598 1.01152,10.739895 -0.55075,3.840727 -2.27376,9.418752 -2.99485,9.695462 -0.46828,0.1797 -1.15223,-0.42818 -1.34473,-1.19516 -0.13429,-0.53503 -0.2621,-0.40664 -1.40083,1.40714 -4.44352,7.07772 -10.38174,12.27956 -18.67659,16.36057 -1.7165,0.84451 -4.58761,2.25231 -6.38025,3.12846 -3.57644,1.74797 -8.37734,4.8492 -11.20215,7.23621 -0.99776,0.84313 -1.89439,1.53296 -1.99251,1.53296 -0.0981,0 -0.84925,-0.58507 -1.66918,-1.30015 z"
       id="path25" /></g></svg>
